<svg width="20" height="18" viewBox="0 0 20 18" fill="none" xmlns="http://www.w3.org/2000/svg">
<path d="M10 7.21749C9.76592 7.21749 9.53413 7.2636 9.31787 7.35318C9.1016 7.44276 8.9051 7.57405 8.73958 7.73958C8.57406 7.9051 8.44276 8.1016 8.35318 8.31786C8.26361 8.53412 8.2175 8.76591 8.2175 8.99999C8.2175 9.23407 8.26361 9.46586 8.35318 9.68213C8.44276 9.89839 8.57406 10.0949 8.73958 10.2604C8.9051 10.4259 9.1016 10.5572 9.31787 10.6468C9.53413 10.7364 9.76592 10.7825 10 10.7825C10.2341 10.7825 10.4659 10.7364 10.6821 10.6468C10.8984 10.5572 11.0949 10.4259 11.2604 10.2604C11.4259 10.0949 11.5572 9.89839 11.6468 9.68213C11.7364 9.46586 11.7825 9.23407 11.7825 8.99999C11.7825 8.76591 11.7364 8.53412 11.6468 8.31786C11.5572 8.1016 11.4259 7.9051 11.2604 7.73958C11.0949 7.57405 10.8984 7.44276 10.6821 7.35318C10.4659 7.2636 10.2341 7.21749 10 7.21749ZM5.00667 12.5458L4.61333 12.4458C1.68167 11.705 0 10.4475 0 8.99666C0 7.54583 1.68167 6.28833 4.61333 5.54749L5.00667 5.44833L5.1175 5.83833C5.41448 6.86142 5.79435 7.85861 6.25333 8.81999L6.3375 8.99749L6.25333 9.17499C5.79359 10.136 5.4137 11.1333 5.1175 12.1567L5.00667 12.5458ZM4.43083 6.45833C2.2025 7.08416 0.835 8.04166 0.835 8.99666C0.835 9.95083 2.2025 10.9083 4.43083 11.535C4.70335 10.6683 5.03239 9.82034 5.41583 8.99666C5.03195 8.17317 4.7029 7.32521 4.43083 6.45833V6.45833ZM14.9933 12.5458L14.8825 12.155C14.5858 11.132 14.2056 10.135 13.7458 9.17416L13.6617 8.99666L13.7458 8.81916C14.2055 7.85796 14.5856 6.86074 14.8825 5.83749L14.9933 5.44749L15.3875 5.54666C18.3183 6.28749 20 7.54499 20 8.99666C20 10.4483 18.3183 11.705 15.3875 12.4458L14.9933 12.5458V12.5458ZM14.5842 8.99666C14.9842 9.86249 15.315 10.7133 15.5692 11.535C17.7983 10.9083 19.165 9.95083 19.165 8.99666C19.165 8.04166 17.7975 7.08499 15.5692 6.45833C15.297 7.32518 14.968 8.17313 14.5842 8.99666V8.99666ZM4.425 6.45416L4.31417 6.06499C3.49 3.15999 3.74 1.07833 5 0.35166C6.23583 -0.361674 8.22 0.480826 10.2992 2.61499L10.5825 2.90583L10.2992 3.19666C9.56038 3.96467 8.88537 4.79157 8.28083 5.66916L8.16833 5.82999L7.9725 5.84666C6.90909 5.93049 5.85424 6.10049 4.81833 6.35499L4.425 6.45416V6.45416ZM6.005 0.92916C5.78167 0.92916 5.58417 0.977493 5.4175 1.07333C4.58917 1.55083 4.4425 3.21083 5.01333 5.45083C5.90136 5.25327 6.80133 5.11381 7.7075 5.03333C8.23035 4.2899 8.80159 3.5817 9.4175 2.91333C8.1175 1.64749 6.88667 0.92916 6.005 0.92916V0.92916ZM13.9958 17.8975C13.995 17.8975 13.995 17.8975 13.9958 17.8975C12.8083 17.8975 11.2833 17.0033 9.70083 15.3783L9.4175 15.0875L9.70083 14.7967C10.4394 14.0284 11.1142 13.2012 11.7183 12.3233L11.8308 12.1625L12.0258 12.1458C13.0898 12.0625 14.1452 11.8927 15.1817 11.6383L15.575 11.5392L15.6867 11.9292C16.5092 14.8325 16.26 16.915 15 17.6408C14.6939 17.8139 14.3474 17.9025 13.9958 17.8975V17.8975ZM10.5825 15.08C11.8825 16.3458 13.1133 17.0642 13.995 17.0642H13.9958C14.2183 17.0642 14.4167 17.0158 14.5825 16.92C15.4108 16.4425 15.5583 14.7817 14.9867 12.5417C14.0984 12.7395 13.1981 12.879 12.2917 12.9592C11.7694 13.7031 11.1985 14.4116 10.5825 15.08V15.08ZM15.575 6.45416L15.1817 6.35499C14.1453 6.09976 13.0899 5.92975 12.0258 5.84666L11.8308 5.82999L11.7183 5.66916C11.1145 4.79129 10.4397 3.96436 9.70083 3.19666L9.4175 2.90583L9.70083 2.61499C11.7792 0.48166 13.7625 -0.36084 15 0.35166C16.26 1.07833 16.51 3.15999 15.6867 6.06416L15.575 6.45416ZM12.2917 5.03333C13.2433 5.11999 14.1475 5.26083 14.9867 5.45083C15.5583 3.21083 15.4108 1.55083 14.5825 1.07333C13.7592 0.597493 12.2117 1.32666 10.5825 2.91333C11.1981 3.58173 11.7691 4.28992 12.2917 5.03333V5.03333ZM6.005 17.8975C5.65316 17.9026 5.3063 17.814 5 17.6408C3.74 16.915 3.49 14.8333 4.31417 11.9292L4.42417 11.5392L4.8175 11.6383C5.78 11.8808 6.84167 12.0517 7.97167 12.1458L8.1675 12.1625L8.27917 12.3233C8.8838 13.2011 9.5588 14.0283 10.2975 14.7967L10.5808 15.0875L10.2975 15.3783C8.71583 17.0033 7.19083 17.8975 6.005 17.8975V17.8975ZM5.01333 12.5417C4.44167 14.7817 4.58917 16.4425 5.4175 16.92C6.24 17.3892 7.78667 16.6658 9.4175 15.08C8.80183 14.4111 8.23061 13.7027 7.7075 12.9592C6.80128 12.879 5.9013 12.7396 5.01333 12.5417V12.5417ZM10 13.065C9.31417 13.065 8.60917 13.035 7.90333 12.9767L7.7075 12.96L7.595 12.7992C7.19576 12.2255 6.82044 11.6355 6.47 11.0308C6.1206 10.4256 5.79644 9.80621 5.49833 9.17416L5.415 8.99666L5.49833 8.81916C5.79639 8.18709 6.12056 7.56767 6.47 6.96249C6.815 6.36583 7.19417 5.77083 7.595 5.19416L7.7075 5.03333L7.90333 5.01666C9.29888 4.89833 10.7019 4.89833 12.0975 5.01666L12.2925 5.03333L12.4042 5.19416C13.2035 6.34171 13.9051 7.5543 14.5017 8.81916L14.5858 8.99666L14.5017 9.17416C13.9065 10.4398 13.2048 11.6525 12.4042 12.7992L12.2925 12.96L12.0975 12.9767C11.3917 13.035 10.6858 13.065 10 13.065V13.065ZM8.16917 12.1617C9.4025 12.2542 10.5975 12.2542 11.8317 12.1617C12.5207 11.1544 13.1324 10.0963 13.6617 8.99666C13.1334 7.89631 12.5213 6.8382 11.8308 5.83166C10.612 5.73916 9.38797 5.73916 8.16917 5.83166C7.4784 6.838 6.86631 7.89615 6.33833 8.99666C6.86813 10.0962 7.48015 11.1542 8.16917 12.1617V12.1617Z" fill="#3C2533"/>
</svg>
